<svg width="160" height="160" viewBox="0 0 160 160" fill="none" xmlns="http://www.w3.org/2000/svg" role="img" aria-labelledby="title desc">
  <title id="title">Janus mark</title>
  <desc id="desc">A symmetrical mark representing telemetry flowing into an evidence layer for AI agents.</desc>
  <rect width="160" height="160" rx="32" fill="#0B1020"/>
  <path d="M80 24C55.7 24 36 43.7 36 68v24c0 24.3 19.7 44 44 44s44-19.7 44-44V68c0-24.3-19.7-44-44-44Z" fill="#111A33" stroke="#6EE7B7" stroke-width="4"/>
  <path d="M80 30v100" stroke="#6EE7B7" stroke-width="4" stroke-linecap="round"/>
  <path d="M63 56c-8.8 0-16 7.2-16 16s7.2 16 16 16" stroke="#7DD3FC" stroke-width="6" stroke-linecap="round"/>
  <path d="M97 56c8.8 0 16 7.2 16 16s-7.2 16-16 16" stroke="#A78BFA" stroke-width="6" stroke-linecap="round"/>
  <path d="M54 106c6.5 6.8 15.2 10 26 10s19.5-3.2 26-10" stroke="#F8FAFC" stroke-width="5" stroke-linecap="round"/>
  <circle cx="64" cy="72" r="5" fill="#7DD3FC"/>
  <circle cx="96" cy="72" r="5" fill="#A78BFA"/>
  <path d="M28 80h20" stroke="#64748B" stroke-width="4" stroke-linecap="round"/>
  <path d="M112 80h20" stroke="#64748B" stroke-width="4" stroke-linecap="round"/>
  <path d="M22 56h18" stroke="#334155" stroke-width="4" stroke-linecap="round"/>
  <path d="M120 104h18" stroke="#334155" stroke-width="4" stroke-linecap="round"/>
</svg>
